<svg id="eSWjtAMc6vP1" xmlns="http://www.w3.org/2000/svg" xmlns:xlink="http://www.w3.org/1999/xlink" viewBox="0 0 16 16" shape-rendering="geometricPrecision" text-rendering="geometricPrecision">
  <path d="M4,1h1v1h-1v-1Z" fill="#fdb58d"/>
  <path d="M2,3h1v1h-1v-1Z" fill="#fdb58d"/>
  <path d="M14,3h1v1h-1v-1Z" fill="#fdb58d"/>
  <path d="M2,5h1v1h-1v-1Z" fill="#fdb58d"/>
  <path d="M14,5h1v1h-1v-1Z" fill="#fdb58d"/>
  <path d="M3,7h1v1h-1v-1Z" fill="#fdb58d"/>
  <path d="M4,9h1v1h-1v-1Z" fill="#fdb58d"/>
  <path d="M8,13h1v1h-1v-1Z" fill="#fdb58d"/>
  <path d="M12,9h1v1h-1v-1Z" fill="#fdb58d"/>
  <path d="M6,11h1v1h-1v-1Z" fill="#fdb58d"/>
  <path d="M10,11h1v1h-1v-1Z" fill="#fdb58d"/>
  <path d="M5,1h1v1h-1v-1Z" fill="#fff"/>
  <path d="M14,6h1v1h-1v-1Z" fill="#fff"/>
  <path d="M5,10h1v1h-1v-1Z" fill="#fff"/>
  <path d="M7,12h1v1h-1v-1Z" fill="#fff"/>
  <path d="M9,12h1v1h-1v-1Z" fill="#fff"/>
  <path d="M11,10h1v1h-1v-1Z" fill="#fff"/>
  <path d="M3,8h1v1h-1v-1Z" fill="#fff"/>
  <path d="M13,7h1v1h-1v-1Z" fill="#fdb58d"/>
  <path d="M13,8h1v1h-1v-1Z" fill="#fff"/>
  <path d="M2,6h1v1h-1v-1Z" fill="#fff"/>
  <path d="M2,4h1v1h-1v-1Z" fill="#fff"/>
  <path d="M14,4h1v1h-1v-1Z" fill="#fff"/>
  <path d="M11,1h1v1h-1v-1Z" fill="#fff"/>
  <path d="M13,2h1v1h-1v-1Z" fill="#fff"/>
  <path d="M3,2h1v1h-1v-1Z" fill="#fff"/>
  <path d="M9,2h1v1h-1v-1Z" fill="#fff"/>
  <path d="M7,2h1v1h-1v-1Z" fill="#fff"/>
  <path d="M6,1h1v1h-1v-1Z" fill="#fdb58d"/>
  <path d="M12,1h1v1h-1v-1Z" fill="#fdb58d"/>
  <path d="M10,1h1v1h-1v-1Z" fill="#fdb58d"/>
  <path d="M8,3h1v1h-1v-1Z" fill="#fdb58d"/>
  <path d="M4,2h3v1h1v1h1v-1h1v-1h3v1h1v4h-1v2h-1v1h-1v1h-1v1h-1v1h-1v-1h-1v-1h-1v-1h-1v-1h-1v-2h-1v-4h1v-1Z" fill="#ff640d" stroke-width="0.5"/>
</svg>
